<svg xmlns="http://www.w3.org/2000/svg" version="1.1" width="332.0" height="32.0" viewBox="0 0 332.0 32.0">
<path d="M0 0 C1.56344612 8.59895368 1.56344612 17.40104632 0 26 C-9.52080401 30.03912897 -18.76442568 30.3668157 -28.453125 26.65625 C-28.96359375 26.4396875 -29.4740625 26.223125 -30 26 C-31.56344612 17.40104632 -31.56344612 8.59895368 -30 0 C-19.87648321 -4.29482531 -10.12351679 -4.29482531 0 0 Z " fill="#43301E" transform="translate(31,3)" />
<path d="M0 0 C1.32 0 2.64 0 4 0 C4 2.64 4 5.28 4 8 C6.64 8 9.28 8 12 8 C12.33 7.34 12.66 6.68 13 6 C13.66 6 14.32 6 15 6 C15.19406478 7.64507218 15.38007935 9.29109594 15.5625 10.9375 C15.66691406 11.85402344 15.77132813 12.77054688 15.87890625 13.71484375 C15.91886719 14.46894531 15.95882813 15.22304688 16 16 C15.67 16.33 15.34 16.66 15 17 C14.95936168 18.66617115 14.957279 20.33388095 15 22 C13.68 21.01 12.36 20.02 11 19 C11 19.99 11 20.98 11 22 C6.79593898 25.54717649 3.23066851 25.2659662 -2 25 C-2 23.68 -2 22.36 -2 21 C-1.34 20.67 -0.68 20.34 0 20 C0 17.36 0 14.72 0 12 C-2.64 12 -5.28 12 -8 12 C-8 10.68 -8 9.36 -8 8 C-5.36 8 -2.72 8 0 8 C0 5.36 0 2.72 0 0 Z " fill="#F6C048" transform="translate(14,6)" />
<path d="M0 0 C1.8515625 1.5234375 1.8515625 1.5234375 3 3 C1.68 3.33 0.36 3.66 -1 4 C-1.33 3.34 -1.66 2.68 -2 2 C-4.97 2 -7.94 2 -11 2 C-11 2.66 -11 3.32 -11 4 C-13.31 4 -15.62 4 -18 4 C-18 6.31 -18 8.62 -18 11 C-18.66 11 -19.32 11 -20 11 C-20 13.97 -20 16.94 -20 20 C-19.34 20.33 -18.68 20.66 -18 21 C-18 23.31 -18 25.62 -18 28 C-15.69 28 -13.38 28 -11 28 C-10.67 28.66 -10.34 29.32 -10 30 C-7.36 30 -4.72 30 -2 30 C-1.67 29.34 -1.34 28.68 -1 28 C0.32 28 1.64 28 3 28 C2.67 26.68 2.34 25.36 2 24 C5 25 5 25 6 27 C6 25.02 6 23.04 6 21 C6.66 20.67 7.32 20.34 8 20 C8 17.36 8 14.72 8 12 C7.34 11.67 6.68 11.34 6 11 C6.020625 9.88625 6.04125 8.7725 6.0625 7.625 C6.26380718 4.16784079 6.26380718 4.16784079 5 2 C6.32 2.33 7.64 2.66 9 3 C10.56344612 11.59895368 10.56344612 20.40104632 9 29 C-0.52080401 33.03912897 -9.76442568 33.3668157 -19.453125 29.65625 C-19.96359375 29.4396875 -20.4740625 29.223125 -21 29 C-22.56344612 20.40104632 -22.56344612 11.59895368 -21 3 C-14.2013062 0.11570566 -7.3732614 -1.12923823 0 0 Z " fill="#0C0704" transform="translate(22,0)" />
<path d="M0 0 C2.97 0 5.94 0 9 0 C9 1.32 9 2.64 9 4 C6.69 4.33 4.38 4.66 2 5 C2 6.65 2 8.3 2 10 C1.34 10 0.68 10 0 10 C0 10.66 0 11.32 0 12 C-1.65 12 -3.3 12 -5 12 C-5.33 14.31 -5.66 16.62 -6 19 C-7.32 19 -8.64 19 -10 19 C-10.05399736 17.54207116 -10.09279177 16.08357288 -10.125 14.625 C-10.15980469 13.40683594 -10.15980469 13.40683594 -10.1953125 12.1640625 C-10 10 -10 10 -8 8 C-7.95936168 6.33382885 -7.957279 4.66611905 -8 3 C-7 2 -7 2 -3.9375 1.9375 C-2.4834375 1.9684375 -2.4834375 1.9684375 -1 2 C-0.67 1.34 -0.34 0.68 0 0 Z " fill="#597541" transform="translate(11,1)" />
<path d="M0 0 C0.66 0 1.32 0 2 0 C2.19406478 1.64507218 2.38007935 3.29109594 2.5625 4.9375 C2.66691406 5.85402344 2.77132813 6.77054688 2.87890625 7.71484375 C2.91886719 8.46894531 2.95882813 9.22304688 3 10 C2.67 10.33 2.34 10.66 2 11 C1.95936168 12.66617115 1.957279 14.33388095 2 16 C0.68 15.01 -0.64 14.02 -2 13 C-2 13.99 -2 14.98 -2 16 C-6.20406102 19.54717649 -9.76933149 19.2659662 -15 19 C-15 17.68 -15 16.36 -15 15 C-13.02 14.67 -11.04 14.34 -9 14 C-9 11.36 -9 8.72 -9 6 C-6.36 6 -3.72 6 -1 6 C-0.67 4.02 -0.34 2.04 0 0 Z " fill="#8D785F" transform="translate(27,12)" />
<path d="M0 0 C1.32 0.33 2.64 0.66 4 1 C5.56344612 9.59895368 5.56344612 18.40104632 4 27 C-3.42857143 29.42857143 -3.42857143 29.42857143 -7 28 C-6.67 27.34 -6.34 26.68 -6 26 C-4.68 26 -3.36 26 -2 26 C-2.33 24.68 -2.66 23.36 -3 22 C0 23 0 23 1 25 C1 23.02 1 21.04 1 19 C1.66 18.67 2.32 18.34 3 18 C3 15.36 3 12.72 3 10 C2.34 9.67 1.68 9.34 1 9 C1.020625 7.88625 1.04125 6.7725 1.0625 5.625 C1.26380718 2.16784079 1.26380718 2.16784079 0 0 Z " fill="#1E2012" transform="translate(27,2)" />
<path d="M0 0 C0.75 2.1875 0.75 2.1875 1 5 C-0.625 7.8125 -0.625 7.8125 -3 10 C-5.6875 10.375 -5.6875 10.375 -8 10 C-9 9 -9 9 -9.3125 6.6875 C-9 4 -9 4 -7.3125 1.6875 C-4.60883753 -0.28544288 -3.27034459 -0.36337162 0 0 Z " fill="#29693B" transform="translate(12,19)" />
<path d="M0 0 C1.32 0.66 2.64 1.32 4 2 C4.3125 4.25 4.3125 4.25 4 7 C1.6875 9.3125 1.6875 9.3125 -1 11 C-1.99 11 -2.98 11 -4 11 C-4 9 -4 9 -2 7 C-2.66 7 -3.32 7 -4 7 C-3.6875 4.625 -3.6875 4.625 -3 2 C-2.01 1.34 -1.02 0.68 0 0 Z " fill="#337948" transform="translate(25,2)" />
<path d="M0 0 C1.23556641 0.01740234 1.23556641 0.01740234 2.49609375 0.03515625 C3.32238281 0.04417969 4.14867187 0.05320313 5 0.0625 C5.63808594 0.07410156 6.27617187 0.08570312 6.93359375 0.09765625 C6.93359375 1.41765625 6.93359375 2.73765625 6.93359375 4.09765625 C4.62359375 4.42765625 2.31359375 4.75765625 -0.06640625 5.09765625 C-0.06640625 6.74765625 -0.06640625 8.39765625 -0.06640625 10.09765625 C-3.08655682 9.09093939 -4.15957203 8.54930025 -6.06640625 6.09765625 C-6.06640625 4.77765625 -6.06640625 3.45765625 -6.06640625 2.09765625 C-5.07640625 1.76765625 -4.08640625 1.43765625 -3.06640625 1.09765625 C-2.06640625 0.09765625 -2.06640625 0.09765625 0 0 Z " fill="#C0907F" transform="translate(13.06640625,0.90234375)" />
<path d="M0 0 C2.97 0 5.94 0 9 0 C9.33 1.32 9.66 2.64 10 4 C10.6469365 5.6744239 11.30959426 7.34302621 12 9 C10.02 9.33 8.04 9.66 6 10 C6 8.02 6 6.04 6 4 C3.69 4.33 1.38 4.66 -1 5 C-0.67 4.34 -0.34 3.68 0 3 C2.31 3 4.62 3 7 3 C7 2.34 7 1.68 7 1 C4.69 1 2.38 1 0 1 C0 0.67 0 0.34 0 0 Z " fill="#2E261B" transform="translate(13,2)" />
<path d="M0 0 C1.98 0.495 1.98 0.495 4 1 C3.67 3.97 3.34 6.94 3 10 C1.68 10 0.36 10 -1 10 C-1.02689216 8.52093108 -1.04634621 7.04172517 -1.0625 5.5625 C-1.07410156 4.73878906 -1.08570312 3.91507813 -1.09765625 3.06640625 C-1 1 -1 1 0 0 Z " fill="#85332A" transform="translate(2,10)" />
<path d="M0 0 C1.32 0.33 2.64 0.66 4 1 C5.15316726 7.34241995 5.09507063 13.56688704 5 20 C4.67 20 4.34 20 4 20 C3.92652344 18.93458984 3.92652344 18.93458984 3.8515625 17.84765625 C3.73941406 16.46900391 3.73941406 16.46900391 3.625 15.0625 C3.55539063 14.14597656 3.48578125 13.22945312 3.4140625 12.28515625 C3.20910156 11.15400391 3.20910156 11.15400391 3 10 C2.34 9.67 1.68 9.34 1 9 C1.020625 7.88625 1.04125 6.7725 1.0625 5.625 C1.26380718 2.16784079 1.26380718 2.16784079 0 0 Z " fill="#080504" transform="translate(27,2)" />
<path d="M0 0 C2.6635969 0.35994553 4.58183452 0.71161002 6.8125 2.25 C8.39364795 4.58011277 8.22337696 6.24501755 8 9 C1.42857143 3.85714286 1.42857143 3.85714286 0 0 Z " fill="#87B269" transform="translate(21,19)" />
<path d="M0 0 C3.16115776 1.36983503 3.9927092 1.9890638 6 5 C6 5.99 6 6.98 6 8 C2.97984943 6.99328314 1.90683422 6.451644 0 4 C0 2.68 0 1.36 0 0 Z " fill="#8EBB6F" transform="translate(7,3)" />
<path d="M0 0 C-0.75 4.75 -0.75 4.75 -3 7 C-3.99 7 -4.98 7 -6 7 C-5.37162381 3.35541809 -4.14650034 0 0 0 Z " fill="#469960" transform="translate(13,21)" />
<path d="M0 0 C0.99 0.33 1.98 0.66 3 1 C2.01 1.33 1.02 1.66 0 2 C-0.165 2.66 -0.33 3.32 -0.5 4 C-0.665 4.66 -0.83 5.32 -1 6 C-1.99 6.33 -2.98 6.66 -4 7 C-3.6875 4.625 -3.6875 4.625 -3 2 C-2.01 1.34 -1.02 0.68 0 0 Z " fill="#44955D" transform="translate(25,2)" />
<path d="M0 0 C0.99 0 1.98 0 3 0 C3.66 1.65 4.32 3.3 5 5 C3.02 5.33 1.04 5.66 -1 6 C-0.67 4.02 -0.34 2.04 0 0 Z " fill="#195428" transform="translate(20,6)" />
<path d="M0 0 C0.66 0 1.32 0 2 0 C2 2.31 2 4.62 2 7 C-0.31 7 -2.62 7 -5 7 C-4.67 6.34 -4.34 5.68 -4 5 C-3.01 5.33 -2.02 5.66 -1 6 C-1 5.34 -1 4.68 -1 4 C-0.34 4 0.32 4 1 4 C0.67 2.68 0.34 1.36 0 0 Z " fill="#494420" transform="translate(12,7)" />
<path d="M0 0 C2 0 2 0 3.625 1.3125 C5 3 5 3 5 6 C3.68 5.67 2.36 5.34 1 5 C0.67 3.35 0.34 1.7 0 0 Z " fill="#87B261" transform="translate(20,22)" />
<path d="M0 0 C0.66 0 1.32 0 2 0 C2 2.64 2 5.28 2 8 C1.34 8 0.68 8 0 8 C-0.79953138 4.71303767 -1.09658936 3.28976808 0 0 Z " fill="#E5D6B5" transform="translate(3,12)" />
<text x="52.0" y="17.0" fill="white" font-size="28" font-family="Helvetica, Arial, sans-serif" font-weight="bold" dominant-baseline="middle">Heal Bridge</text></svg>